<?xml version="1.0" standalone="no"?>
<!DOCTYPE svg PUBLIC "-//W3C//DTD SVG 20010904//EN"
 "http://www.w3.org/TR/2001/REC-SVG-20010904/DTD/svg10.dtd">
<svg version="1.0" xmlns="http://www.w3.org/2000/svg"
 width="700.000000pt" height="700.000000pt" viewBox="0 0 700.000000 700.000000"
 preserveAspectRatio="xMidYMid meet">
<metadata>
Created by potrace 1.11, written by Peter Selinger 2001-2013
</metadata>
<g transform="translate(0.000000,700.000000) scale(0.100000,-0.100000)"
fill="#000000" stroke="none">
<path d="M3820 6452 c-106 -11 -276 -82 -360 -151 -99 -81 -676 -652 -742
-734 -54 -69 -113 -202 -132 -302 -4 -16 -9 -41 -12 -55 -3 -14 -7 -79 -8
-145 -7 -269 75 -514 230 -685 85 -94 228 -180 349 -209 341 -84 681 57 858
354 84 140 106 239 109 492 2 242 15 320 71 443 80 176 246 333 421 400 l23 8
-1 -141 0 -142 -35 -23 c-55 -37 -90 -72 -130 -132 -77 -113 -90 -174 -92
-427 -2 -215 -14 -301 -63 -438 -71 -197 -192 -357 -366 -483 -110 -80 -289
-162 -357 -164 -5 0 -15 -4 -24 -8 -23 -13 -141 -23 -232 -22 -76 2 -80 0
-160 -46 -45 -26 -83 -50 -85 -54 -2 -5 -8 -8 -13 -8 -5 0 -66 -34 -135 -75
-69 -41 -128 -75 -129 -75 -2 0 -24 -13 -48 -30 -25 -16 -47 -30 -50 -30 -3 0
-69 -38 -146 -85 -78 -47 -146 -85 -151 -85 -6 0 -10 -4 -10 -10 0 -5 -4 -10
-9 -10 -5 0 -38 -18 -72 -39 -35 -21 -140 -85 -234 -141 -534 -323 -673 -430
-813 -626 -119 -166 -177 -303 -228 -539 -4 -16 -8 -100 -10 -185 -3 -184 10
-274 64 -428 l38 -107 -395 0 c-327 0 -406 -2 -458 -15 -151 -38 -270 -182
-279 -337 -10 -193 84 -331 276 -404 29 -11 334 -14 1690 -14 1838 -1 1712 -6
1794 66 131 116 113 299 -44 457 -121 121 -310 218 -464 237 -31 4 -56 9 -56
11 0 3 14 30 30 61 28 53 74 177 86 233 2 14 9 45 14 70 5 25 8 96 8 159 -1
246 -91 487 -247 661 -22 25 -41 48 -41 51 0 3 39 45 87 92 69 67 90 83 102
75 28 -17 124 -144 178 -233 48 -80 125 -257 137 -315 36 -179 42 -225 40
-335 -1 -114 -4 -139 -23 -226 l-8 -37 270 -1 c149 -1 272 -3 275 -5 2 -2 3
-184 3 -405 1 -362 2 -404 19 -448 22 -58 73 -114 132 -144 43 -23 44 -23 571
-24 395 0 539 3 571 12 90 26 172 131 180 228 12 160 -196 389 -434 478 -62
23 -146 43 -163 39 -7 -2 -2 84 8 136 1 9 6 42 10 72 3 30 8 66 10 80 9 67 19
156 17 162 -1 4 35 32 80 64 293 205 494 542 534 894 7 70 8 296 0 308 -2 4
-7 28 -11 52 -19 131 -69 270 -156 430 -18 32 -76 116 -106 155 -41 51 -166
174 -200 198 l-33 22 0 262 0 262 443 4 c243 2 456 6 472 10 239 58 457 194
595 369 12 16 80 126 152 245 72 120 138 229 148 243 10 14 18 28 19 33 0 4 8
24 17 45 32 76 -2 212 -69 268 -71 60 -103 67 -327 69 -227 3 -294 14 -407 65
-120 55 -165 90 -378 302 -116 114 -235 227 -265 249 -81 61 -197 116 -282
133 -13 3 -34 8 -48 12 -23 6 -1335 12 -1390 6z m1677 -603 c33 -21 74 -70 81
-99 3 -8 6 -35 9 -60 6 -59 -28 -124 -86 -165 -37 -26 -51 -30 -106 -29 -54 1
-70 5 -102 30 -66 49 -90 98 -87 171 8 139 173 225 291 152z"/>
</g>
</svg>
